<?xml version="1.0" encoding="utf-8"?>
<svg xmlns="http://www.w3.org/2000/svg" xmlns:xlink="http://www.w3.org/1999/xlink" style="margin: auto; background: none; display: block; shape-rendering: auto;" width="217px" height="217px" viewBox="0 0 100 100" preserveAspectRatio="xMidYMid">
<g transform="rotate(0 50 50)">
  <rect x="47" y="23" rx="3" ry="5.76" width="6" height="12" fill="#ccd3f3">
    <animate attributeName="opacity" values="1;0" keyTimes="0;1" dur="0.53475935828877s" begin="-0.4965622612681436s" repeatCount="indefinite"></animate>
  </rect>
</g><g transform="rotate(25.714285714285715 50 50)">
  <rect x="47" y="23" rx="3" ry="5.76" width="6" height="12" fill="#e7008a">
    <animate attributeName="opacity" values="1;0" keyTimes="0;1" dur="0.53475935828877s" begin="-0.4583651642475172s" repeatCount="indefinite"></animate>
  </rect>
</g><g transform="rotate(51.42857142857143 50 50)">
  <rect x="47" y="23" rx="3" ry="5.76" width="6" height="12" fill="#ff003a">
    <animate attributeName="opacity" values="1;0" keyTimes="0;1" dur="0.53475935828877s" begin="-0.42016806722689076s" repeatCount="indefinite"></animate>
  </rect>
</g><g transform="rotate(77.14285714285714 50 50)">
  <rect x="47" y="23" rx="3" ry="5.76" width="6" height="12" fill="#ff6d00">
    <animate attributeName="opacity" values="1;0" keyTimes="0;1" dur="0.53475935828877s" begin="-0.3819709702062643s" repeatCount="indefinite"></animate>
  </rect>
</g><g transform="rotate(102.85714285714286 50 50)">
  <rect x="47" y="23" rx="3" ry="5.76" width="6" height="12" fill="#ffc53f">
    <animate attributeName="opacity" values="1;0" keyTimes="0;1" dur="0.53475935828877s" begin="-0.3437738731856379s" repeatCount="indefinite"></animate>
  </rect>
</g><g transform="rotate(128.57142857142858 50 50)">
  <rect x="47" y="23" rx="3" ry="5.76" width="6" height="12" fill="#ccd3f3">
    <animate attributeName="opacity" values="1;0" keyTimes="0;1" dur="0.53475935828877s" begin="-0.30557677616501144s" repeatCount="indefinite"></animate>
  </rect>
</g><g transform="rotate(154.28571428571428 50 50)">
  <rect x="47" y="23" rx="3" ry="5.76" width="6" height="12" fill="#e7008a">
    <animate attributeName="opacity" values="1;0" keyTimes="0;1" dur="0.53475935828877s" begin="-0.26737967914438504s" repeatCount="indefinite"></animate>
  </rect>
</g><g transform="rotate(180 50 50)">
  <rect x="47" y="23" rx="3" ry="5.76" width="6" height="12" fill="#ff003a">
    <animate attributeName="opacity" values="1;0" keyTimes="0;1" dur="0.53475935828877s" begin="-0.2291825821237586s" repeatCount="indefinite"></animate>
  </rect>
</g><g transform="rotate(205.71428571428572 50 50)">
  <rect x="47" y="23" rx="3" ry="5.76" width="6" height="12" fill="#ff6d00">
    <animate attributeName="opacity" values="1;0" keyTimes="0;1" dur="0.53475935828877s" begin="-0.19098548510313215s" repeatCount="indefinite"></animate>
  </rect>
</g><g transform="rotate(231.42857142857142 50 50)">
  <rect x="47" y="23" rx="3" ry="5.76" width="6" height="12" fill="#ffc53f">
    <animate attributeName="opacity" values="1;0" keyTimes="0;1" dur="0.53475935828877s" begin="-0.15278838808250572s" repeatCount="indefinite"></animate>
  </rect>
</g><g transform="rotate(257.14285714285717 50 50)">
  <rect x="47" y="23" rx="3" ry="5.76" width="6" height="12" fill="#ccd3f3">
    <animate attributeName="opacity" values="1;0" keyTimes="0;1" dur="0.53475935828877s" begin="-0.1145912910618793s" repeatCount="indefinite"></animate>
  </rect>
</g><g transform="rotate(282.85714285714283 50 50)">
  <rect x="47" y="23" rx="3" ry="5.76" width="6" height="12" fill="#e7008a">
    <animate attributeName="opacity" values="1;0" keyTimes="0;1" dur="0.53475935828877s" begin="-0.07639419404125286s" repeatCount="indefinite"></animate>
  </rect>
</g><g transform="rotate(308.57142857142856 50 50)">
  <rect x="47" y="23" rx="3" ry="5.76" width="6" height="12" fill="#ff003a">
    <animate attributeName="opacity" values="1;0" keyTimes="0;1" dur="0.53475935828877s" begin="-0.03819709702062643s" repeatCount="indefinite"></animate>
  </rect>
</g><g transform="rotate(334.2857142857143 50 50)">
  <rect x="47" y="23" rx="3" ry="5.76" width="6" height="12" fill="#ff6d00">
    <animate attributeName="opacity" values="1;0" keyTimes="0;1" dur="0.53475935828877s" begin="0s" repeatCount="indefinite"></animate>
  </rect>
</g>
<!-- [ldio] generated by https://loading.io/ --></svg>